<svg xmlns="http://www.w3.org/2000/svg" width="520" height="360" viewBox="0 0 520 360">
  <defs>
    <linearGradient id="bg" x1="0" y1="0" x2="1" y2="1">
      <stop offset="0" stop-color="#efe7d8"/>
      <stop offset="1" stop-color="#d9e4d7"/>
    </linearGradient>
    <linearGradient id="ink" x1="0" y1="0" x2="1" y2="0">
      <stop offset="0" stop-color="#2c2c2c" stop-opacity="0.65"/>
      <stop offset="1" stop-color="#2c2c2c" stop-opacity="0.35"/>
    </linearGradient>
    <filter id="grain" x="-20%" y="-20%" width="140%" height="140%">
      <feTurbulence type="fractalNoise" baseFrequency="0.9" numOctaves="2" stitchTiles="stitch" />
      <feColorMatrix type="matrix" values="
        1 0 0 0 0
        0 1 0 0 0
        0 0 1 0 0
        0 0 0 0.08 0" />
    </filter>
  </defs>

  <rect width="520" height="360" rx="28" fill="url(#bg)"/>
  <rect width="520" height="360" rx="28" fill="none" stroke="url(#ink)" stroke-width="6" opacity="0.55"/>

  <!-- polaroid -->
  <g transform="translate(74 56)">
    <rect x="0" y="0" width="372" height="248" rx="18" fill="#f8f5ee" opacity="0.92"/>
    <rect x="18" y="18" width="336" height="176" rx="14" fill="#e8efe6"/>
    <path d="M38 156 C90 122, 128 142, 170 116 C206 94, 242 106, 284 80 C310 64, 332 72, 350 58"
          fill="none" stroke="#2f3b2f" stroke-opacity="0.55" stroke-width="6" stroke-linecap="round"/>
    <circle cx="84" cy="84" r="22" fill="#97b6a0" opacity="0.55"/>
    <circle cx="118" cy="90" r="12" fill="#97b6a0" opacity="0.45"/>
    <rect x="18" y="210" width="220" height="16" rx="8" fill="#2c2c2c" opacity="0.12"/>
    <rect x="18" y="232" width="164" height="14" rx="7" fill="#2c2c2c" opacity="0.10"/>
  </g>

  <!-- caption -->
  <g fill="#2c2c2c">
    <text x="54" y="330" font-family="ui-monospace, SFMono-Regular, Menlo, Monaco, Consolas, 'Liberation Mono', 'Courier New', monospace"
          font-size="18" letter-spacing="3" opacity="0.58">
      MEMORY LANE
    </text>
  </g>

  <rect width="520" height="360" rx="28" filter="url(#grain)" opacity="0.9"/>
</svg>
